<svg width="337" height="242" viewBox="0 0 337 242" fill="none" xmlns="http://www.w3.org/2000/svg">
<g clip-path="url(#clip0_1314_531)">
<path d="M32.5547 209.65C32.5547 209.65 -11.7087 189.212 3.84094 175.038C19.3907 160.865 32.5547 209.65 32.5547 209.65Z" fill="#E6E6E6"/>
<path d="M31.7843 214.419C31.7843 214.419 11.4392 147.369 41.3982 150.576C71.3571 153.782 31.7843 214.419 31.7843 214.419Z" fill="#E6E6E6"/>
<path d="M16.9504 208.473L17.8043 219.689L17.8178 219.883C17.817 221.634 17.9052 223.385 18.0821 225.127C19.241 236.567 24.2222 241.781 30.0437 241.781C35.8652 241.781 40.6295 236.567 41.7883 225.127C41.9652 223.385 42.0535 221.634 42.0526 219.883L42.0594 219.726L42.0628 219.689L42.9201 208.473H16.9504Z" fill="#E6E6E6"/>
<path d="M42.0629 219.689L42.0595 219.726L42.0527 219.883C42.0536 221.634 41.9653 223.385 41.7884 225.127H18.0822C17.9053 223.385 17.8171 221.634 17.8179 219.883L17.8044 219.689H42.0629Z" fill="white"/>
<path d="M321.252 216.51C321.252 216.51 286.983 200.686 299.022 189.712C311.06 178.739 321.252 216.51 321.252 216.51Z" fill="#E6E6E6"/>
<path d="M320.656 220.202C320.656 220.202 304.904 168.29 328.099 170.773C351.294 173.256 320.656 220.202 320.656 220.202Z" fill="#E6E6E6"/>
<path d="M309.171 215.598L309.832 224.282L309.843 224.432C309.842 225.788 309.91 227.143 310.047 228.492C310.945 237.349 314.801 241.386 319.308 241.386C323.815 241.386 327.504 237.349 328.401 228.492C328.538 227.143 328.606 225.788 328.606 224.432L328.611 224.311L328.614 224.282L329.277 215.598H309.171Z" fill="#E6E6E6"/>
<path d="M328.614 224.282L328.611 224.311L328.606 224.432C328.606 225.788 328.538 227.143 328.401 228.492H310.047C309.91 227.143 309.842 225.788 309.843 224.432L309.832 224.282H328.614Z" fill="white"/>
<path d="M107.369 72.182V56.9274H105.004V72.182C104.326 72.4572 103.764 72.9605 103.415 73.6056C103.066 74.2507 102.952 74.9975 103.092 75.7179C103.231 76.4384 103.617 77.0876 104.181 77.5544C104.746 78.0212 105.455 78.2764 106.187 78.2764C106.918 78.2764 107.627 78.0212 108.192 77.5544C108.757 77.0876 109.142 76.4384 109.282 75.7179C109.421 74.9975 109.307 74.2507 108.958 73.6056C108.609 72.9605 108.047 72.4572 107.369 72.182Z" fill="#E6E6E6"/>
<path d="M112.887 226.128H96.7274V29.2543H90.4213V226.128H74.2618C72.3468 226.128 70.4505 226.507 68.6812 227.242C66.9119 227.977 65.3043 229.054 63.9502 230.413C62.596 231.771 61.5218 233.383 60.789 235.158C60.0561 236.933 59.6789 238.835 59.6789 240.755L127.47 240.756C127.47 238.835 127.093 236.933 126.36 235.158C125.627 233.383 124.553 231.771 123.199 230.413C121.844 229.054 120.237 227.977 118.468 227.242C116.698 226.507 114.802 226.128 112.887 226.128Z" fill="#E6E6E6"/>
<path d="M59.7117 58.5087H127.437L123.296 6.58601C123.144 4.79561 122.33 3.12684 121.014 1.90801C119.698 0.689178 117.974 0.00851509 116.183 -6.10352e-05H70.9656C69.1742 0.00851466 67.4509 0.689175 66.1347 1.90801C64.8184 3.12683 64.0045 4.79559 63.8531 6.58599L59.7117 58.5087Z" fill="#D3C1C3"/>
<path d="M154.01 149.64C153.373 149.534 152.721 149.555 152.093 149.704C151.464 149.852 150.871 150.125 150.348 150.505C149.826 150.885 149.383 151.366 149.047 151.919C148.711 152.472 148.488 153.087 148.391 153.727L146.484 166.278L152.971 168.004L157.725 156.31C158.001 155.631 158.121 154.897 158.077 154.165C158.032 153.433 157.824 152.72 157.467 152.079C157.11 151.438 156.614 150.887 156.016 150.464C155.417 150.042 154.732 149.76 154.01 149.64Z" fill="#A0616A"/>
<path d="M153.889 166.255C157.489 180.606 155.94 193.733 142.533 204.039C126.453 199.593 115.758 188.866 109.232 173.275C108.827 172.306 108.621 171.264 108.628 170.213C108.635 169.162 108.854 168.123 109.272 167.159C109.69 166.195 110.299 165.326 111.061 164.604C111.823 163.882 112.723 163.323 113.707 162.96C115.185 162.415 116.793 162.334 118.318 162.729C119.843 163.123 121.212 163.973 122.243 165.167L138.021 183.433L145.423 165.015L153.889 166.255Z" fill="#D3C1C3"/>
<path d="M236.279 241.549C221.596 240.767 212.475 235.71 210.266 225.34L212.631 220.992L239.706 233.363C240.389 233.676 240.965 234.185 241.359 234.826C241.753 235.467 241.949 236.212 241.92 236.964C241.891 237.717 241.64 238.445 241.199 239.054C240.757 239.663 240.145 240.127 239.439 240.387L236.279 241.549Z" fill="#E6E6E6"/>
<path d="M224.934 241.653C217.305 241.421 209.968 241.493 203.016 241.965C201.797 242.049 200.594 241.647 199.668 240.846C198.742 240.046 198.168 238.911 198.071 237.689L197.654 232.456L191.742 222.968L196.866 217.829C205.476 226.431 214.919 233.656 226.135 237.951C226.495 238.199 226.766 238.557 226.907 238.972C227.047 239.387 227.05 239.836 226.915 240.253C226.78 240.67 226.514 241.031 226.156 241.283C225.799 241.536 225.37 241.665 224.934 241.653Z" fill="#E6E6E6"/>
<path d="M183.465 204.388C173.723 221.872 164.143 233.658 151.54 239.968C136.035 245.1 124.704 238.3 115.871 224.352L141.49 207.353L145.234 211.109L179.168 185.207C179.997 184.42 181.102 183.993 182.243 184.018C183.385 184.044 184.47 184.52 185.263 185.343L214.207 220.992L210.66 226.922L183.465 204.388Z" fill="#2F2E41"/>
<path d="M192.136 224.945L178.735 204.388L181.888 198.458L199.624 217.039L192.136 224.945Z" fill="#2F2E41"/>
<path d="M114.886 159.32C122.287 159.32 128.286 153.303 128.286 145.879C128.286 138.456 122.287 132.438 114.886 132.438C107.485 132.438 101.485 138.456 101.485 145.879C101.485 153.303 107.485 159.32 114.886 159.32Z" fill="#A0616A"/>
<path d="M118.433 170.785L103.456 165.646C105.672 162.113 106.644 157.937 106.215 153.786H118.433C117.738 159.818 117.634 165.539 118.433 170.785Z" fill="#A0616A"/>
<path d="M150.358 206.76C148.112 207.685 147.948 210.683 145.825 211.702C135.562 216.627 124.704 220.623 117.251 227.712C99.8328 215.849 83.6884 179.001 104.638 162.878C111.789 167.076 118.177 170.079 118.039 162.878L150.358 206.76Z" fill="#D3C1C3"/>
<path d="M141.293 190.947L134.001 188.377L119.615 199.644L113.167 176.358C112.719 174.743 111.995 175.561 110.954 176.683C109.869 175.676 108.52 175.001 107.066 174.738C105.611 174.475 104.112 174.634 102.745 175.198C101.377 175.761 100.199 176.705 99.3491 177.917C98.4991 179.13 98.0124 180.562 97.9467 182.043C97.1796 198.934 102.258 213.224 114.886 224.154C131.403 220.607 138.413 209.414 141.293 194.9L140.512 194.378C140.8 193.256 141.06 192.113 141.293 190.947Z" fill="black"/>
<path d="M116.689 128.198C121.109 129.211 126.14 130.646 126.422 131.98C130.969 133.129 134.401 135.882 135.102 140.079C135.161 140.442 135.139 140.813 135.039 141.166C134.939 141.52 134.763 141.847 134.524 142.125C134.284 142.403 133.987 142.625 133.652 142.775C133.318 142.925 132.955 143 132.588 142.994C130.116 142.962 126.403 142.724 123.952 141.697C116.831 146.299 115.636 158.269 118.746 166.416L113.852 165.966L108.79 151.101L107.497 165.382L96.3298 163.901L97.7682 145.69C98.2102 141.398 99.6665 137.274 102.016 133.659C102.26 133.296 102.527 132.949 102.815 132.621C104.514 130.696 106.701 129.268 109.144 128.489C111.586 127.71 114.194 127.61 116.689 128.198Z" fill="#2F2E41"/>
<path d="M141.883 173.323L154.147 187.786L172.544 166.009L160.113 150.881L141.883 173.323Z" fill="#3F3D56"/>
<path d="M169.395 166.507L154.81 154.538C155.639 152.544 159.616 153.208 159.616 153.208L171.033 164.818C171.43 165.222 171.771 165.679 172.046 166.175L169.395 166.507Z" fill="#F2F2F2"/>
<path d="M170.057 165.676L153.484 152.71L135.088 180.638L152.407 192.357C154.064 193.022 155.721 191.859 155.721 191.859L172.626 165.926L170.057 165.676Z" fill="#3F3D56"/>
<path d="M155.551 156.757L155.394 156.976L166.002 164.621L166.159 164.403L155.551 156.757Z" fill="#D3C1C3"/>
<path d="M166.299 167.264L152.378 188.376L152.602 188.525L166.523 167.413L166.299 167.264Z" fill="#D3C1C3"/>
<path d="M139.643 180.694L139.484 180.911L150.751 189.226L150.911 189.009L139.643 180.694Z" fill="#D3C1C3"/>
<path d="M153.54 157.121L139.121 177.901L139.341 178.055L153.76 157.275L153.54 157.121Z" fill="#D3C1C3"/>
<path d="M157.993 153.044L157.881 153.166L170.996 165.239L171.108 165.116L157.993 153.044Z" fill="#B3B3B3"/>
<path d="M156.901 153.147L156.791 153.272L170.498 165.409L170.607 165.284L156.901 153.147Z" fill="#B3B3B3"/>
<path d="M156.043 153.389L155.937 153.517L170.166 165.413L170.272 165.285L156.043 153.389Z" fill="#B3B3B3"/>
<path d="M148.503 177.569C147.973 177.199 147.375 176.939 146.743 176.802C146.112 176.666 145.46 176.657 144.825 176.776C144.19 176.895 143.585 177.139 143.045 177.494C142.505 177.85 142.041 178.309 141.679 178.846L134.593 189.365L139.716 193.714L149.008 185.193C149.548 184.697 149.97 184.087 150.243 183.406C150.516 182.725 150.632 181.991 150.583 181.259C150.535 180.527 150.323 179.815 149.962 179.176C149.602 178.537 149.103 177.988 148.503 177.569Z" fill="#A0616A"/>
<path d="M141.293 192.528C138.412 207.042 131.403 218.235 114.886 221.782C102.258 210.852 97.1796 196.562 97.9467 179.671C97.9944 178.62 98.2538 177.591 98.7092 176.644C99.1646 175.697 99.8066 174.853 100.596 174.161C101.386 173.47 102.307 172.947 103.304 172.623C104.301 172.298 105.354 172.18 106.397 172.275C107.966 172.418 109.453 173.037 110.663 174.048C111.872 175.06 112.745 176.417 113.167 177.939L119.615 201.225L134.174 187.768L141.293 192.528Z" fill="#D3C1C3"/>
<path d="M173.809 36.1753C173.6 36.1756 173.399 36.2589 173.252 36.4072C173.104 36.5554 173.021 36.7564 173.021 36.966V98.6374C173.021 98.847 173.104 99.048 173.252 99.1962C173.399 99.3444 173.6 99.4278 173.809 99.428H225.046C225.255 99.4278 225.455 99.3444 225.603 99.1962C225.751 99.048 225.834 98.847 225.834 98.6374V36.966C225.834 36.7564 225.751 36.5554 225.603 36.4072C225.455 36.259 225.255 36.1756 225.046 36.1753H173.809Z" fill="#E6E6E6"/>
<path d="M179.13 93.3004H219.725V42.303H179.13V93.3004Z" fill="white"/>
<path d="M259.112 52.3838C258.987 52.384 258.868 52.4338 258.779 52.5223C258.691 52.6107 258.642 52.7307 258.641 52.8559V83.5382C258.642 83.6633 258.691 83.7833 258.779 83.8718C258.868 83.9603 258.987 84.01 259.112 84.0102H295.819C295.944 84.01 296.064 83.9603 296.152 83.8718C296.24 83.7833 296.29 83.6633 296.29 83.5382V52.8559C296.29 52.7308 296.24 52.6108 296.152 52.5223C296.064 52.4338 295.944 52.384 295.819 52.3839L259.112 52.3838Z" fill="#E6E6E6"/>
<path d="M262.289 56.0421V80.3519H292.643V56.0421H262.289Z" fill="white"/>
<path d="M206.595 40.524H192.259C191.913 40.5253 191.572 40.4349 191.272 40.2617C190.972 40.0885 190.722 39.8388 190.549 39.5379C190.376 39.2369 190.285 38.8954 190.286 38.5479C190.286 38.2004 190.378 37.8593 190.553 37.559L197.721 25.1061C197.727 25.0959 197.733 25.0857 197.739 25.0754C197.895 24.8106 198.112 24.5866 198.372 24.4218C198.631 24.257 198.925 24.1561 199.231 24.1273L199.241 24.1263C199.303 24.1207 199.365 24.1178 199.427 24.1178C199.774 24.1157 200.114 24.2062 200.414 24.3799C200.714 24.5536 200.963 24.8043 201.134 25.1061L208.302 37.559C208.475 37.8595 208.566 38.2003 208.566 38.5473C208.566 38.8943 208.475 39.2351 208.302 39.5356C208.129 39.8361 207.88 40.0856 207.581 40.2591C207.281 40.4326 206.941 40.5239 206.595 40.524ZM191.864 38.5454C191.864 38.6155 191.883 38.6843 191.918 38.745C191.952 38.8056 192.002 38.8559 192.062 38.8906C192.122 38.9254 192.19 38.9434 192.259 38.9427H206.595C206.665 38.9434 206.733 38.9254 206.793 38.8907C206.853 38.8559 206.903 38.8056 206.937 38.745C206.972 38.6843 206.99 38.6156 206.991 38.5456C206.99 38.4767 206.972 38.4091 206.937 38.3498L199.769 25.8968C199.734 25.8367 199.684 25.7868 199.624 25.7521C199.565 25.7174 199.497 25.6991 199.427 25.6991C199.358 25.6991 199.29 25.7174 199.23 25.7521C199.17 25.7868 199.121 25.8367 199.086 25.8968L191.918 38.3497C191.883 38.4089 191.864 38.4765 191.864 38.5454Z" fill="#E6E6E6"/>
<path d="M199.427 27.8734C200.08 27.8734 200.61 27.3424 200.61 26.6874C200.61 26.0324 200.08 25.5015 199.427 25.5015C198.774 25.5015 198.245 26.0324 198.245 26.6874C198.245 27.3424 198.774 27.8734 199.427 27.8734Z" fill="#E6E6E6"/>
<path d="M281.352 53.3722H273.579C273.392 53.3729 273.207 53.3239 273.044 53.23C272.881 53.1361 272.746 53.0007 272.652 52.8376C272.558 52.6744 272.509 52.4892 272.509 52.3008C272.51 52.1124 272.56 51.9275 272.654 51.7647L276.54 45.0131L276.55 44.9965C276.635 44.8529 276.753 44.7314 276.893 44.6421C277.034 44.5528 277.193 44.498 277.359 44.4824L277.365 44.4819C277.398 44.4788 277.432 44.4773 277.466 44.4773C277.653 44.4761 277.838 44.5252 278.001 44.6194C278.163 44.7135 278.298 44.8494 278.391 45.0131L282.277 51.7647C282.371 51.9276 282.42 52.1124 282.42 52.3005C282.42 52.4886 282.371 52.6734 282.277 52.8363C282.183 52.9992 282.048 53.1345 281.886 53.2286C281.724 53.3226 281.539 53.3721 281.352 53.3722ZM273.365 52.2995C273.365 52.3375 273.375 52.3747 273.394 52.4077C273.413 52.4405 273.44 52.4678 273.472 52.4866C273.505 52.5055 273.542 52.5152 273.579 52.5148H281.352C281.389 52.5152 281.426 52.5055 281.459 52.4866C281.492 52.4678 281.519 52.4405 281.537 52.4077C281.556 52.3748 281.566 52.3375 281.566 52.2996C281.566 52.2622 281.556 52.2256 281.537 52.1934L277.651 45.4418C277.632 45.4092 277.605 45.3821 277.573 45.3633C277.54 45.3445 277.503 45.3346 277.466 45.3346C277.428 45.3346 277.391 45.3445 277.359 45.3633C277.326 45.3821 277.299 45.4092 277.281 45.4418L273.394 52.1933C273.375 52.2254 273.365 52.2621 273.365 52.2995Z" fill="#E6E6E6"/>
<path d="M277.466 46.5135C277.82 46.5135 278.107 46.2256 278.107 45.8704C278.107 45.5153 277.82 45.2274 277.466 45.2274C277.112 45.2274 276.825 45.5153 276.825 45.8704C276.825 46.2256 277.112 46.5135 277.466 46.5135Z" fill="#E6E6E6"/>
<path d="M179.594 73.8822C180.16 72.5778 180.986 71.4028 182.02 70.429C183.054 69.4552 184.276 68.7029 185.609 68.2182C186.996 67.6812 188.482 67.4512 189.966 67.5438C191.45 67.6364 192.896 68.0495 194.206 68.7547C197.282 70.3921 199.741 72.9662 202.864 74.5332C205.901 76.0425 209.244 76.8322 212.633 76.8415C216.471 76.8716 220.249 75.8879 223.587 73.9895C223.717 73.9074 223.81 73.7779 223.846 73.6284C223.883 73.4789 223.86 73.3211 223.782 73.1882C223.705 73.0554 223.579 72.9579 223.431 72.9163C223.284 72.8747 223.126 72.8924 222.991 72.9654C219.965 74.6662 216.566 75.5897 213.098 75.6535C209.63 75.7173 206.2 74.9195 203.114 73.3312C199.981 71.6831 197.498 69.0219 194.305 67.4777C192.95 66.818 191.478 66.4347 189.974 66.35C188.47 66.2654 186.964 66.481 185.543 66.9844C183.964 67.5157 182.516 68.3772 181.294 69.5119C180.072 70.6467 179.104 72.0289 178.454 73.567C178.167 74.2734 179.31 74.5809 179.594 73.8822Z" fill="#E6E6E6"/>
<path d="M178.66 84.9683C185.221 83.4989 192.028 83.5226 198.579 85.0376C204.399 86.3913 210.407 88.8268 216.407 87.0104C219.088 86.1989 221.545 84.5758 222.922 82.0779C223.291 81.4095 222.27 80.8106 221.901 81.4793C219.308 86.1825 213.233 86.9761 208.435 86.2044C205.229 85.6887 202.139 84.6548 198.984 83.9149C192.2 82.3196 185.143 82.2887 178.345 83.8247C177.603 83.9909 177.917 85.1346 178.66 84.9683Z" fill="#E6E6E6"/>
<path d="M178.234 58.4581C184.525 57.3848 190.969 57.6147 197.169 59.1338C202.96 60.5571 208.622 63.8089 214.746 63.2473C217.581 62.9873 220.388 61.9414 222.314 59.7658C222.818 59.1968 221.985 58.355 221.478 58.9271C219.816 60.804 217.423 61.7767 214.967 62.0395C212.137 62.3424 209.356 61.7542 206.662 60.9184C203.68 59.9933 200.783 58.8213 197.751 58.0567C191.264 56.423 184.509 56.1702 177.919 57.3145C177.171 57.4427 177.488 58.5858 178.234 58.4581Z" fill="#E6E6E6"/>
<path d="M267.575 55.6416C270.293 58.4338 272.168 61.9407 272.983 65.7568C273.61 68.7926 273.539 71.9316 272.776 74.9359C272.014 77.9402 270.579 80.7309 268.581 83.0964C268.091 83.675 268.924 84.5179 269.417 83.9351C272.139 80.7188 273.877 76.7827 274.422 72.5997C274.82 69.3708 274.486 66.0935 273.445 63.0121C272.404 59.9307 270.683 57.1246 268.411 54.803C267.877 54.2571 267.041 55.0959 267.575 55.6416Z" fill="#E6E6E6"/>
<path d="M285.315 53.1108C281.691 55.7766 279.662 60.0794 279.377 64.5299C279.08 69.1606 280.841 73.6328 283.676 77.2281C285.33 79.2983 287.306 81.0875 289.528 82.527C290.167 82.9461 290.76 81.9196 290.125 81.5029C286.505 79.1272 283.407 75.7524 281.762 71.7024C280.961 69.7786 280.545 67.7151 280.539 65.63C280.533 63.5449 280.937 61.479 281.728 59.5507C282.614 57.4023 284.059 55.5319 285.911 54.1349C286.519 53.6881 285.93 52.6585 285.315 53.1108Z" fill="#E6E6E6"/>
<path d="M202.186 65.0344C205.234 65.0344 207.704 62.5564 207.704 59.4998C207.704 56.4431 205.234 53.9652 202.186 53.9652C199.139 53.9652 196.668 56.4431 196.668 59.4998C196.668 62.5564 199.139 65.0344 202.186 65.0344Z" fill="#E6E6E6"/>
</g>
<defs>
<clipPath id="clip0_1314_531">
<rect width="337" height="242" fill="white"/>
</clipPath>
</defs>
</svg>
