<svg width="246" height="66" viewBox="0 0 246 66" fill="none" xmlns="http://www.w3.org/2000/svg">
<path d="M70.3133 6.75293C69.8044 5.24799 68.6488 4.03614 67.1757 3.46087C66.5669 1.45875 64.6874 0 62.4669 0C62.4426 0 62.419 6.7909e-07 62.3955 0.0016803L61.5826 0.0755832C61.5314 0.0781027 61.4852 0.0898605 61.4381 0.102458L49.5296 3.54989V3.41384C49.5296 2.99057 49.1861 2.64625 48.762 2.64625C48.3387 2.64625 47.9944 2.99057 47.9944 3.41384V3.99499L38.5415 6.73193H36.6553L13.7586 0.102458C13.7108 0.0881809 13.6637 0.0781027 13.6142 0.0755832L12.7996 0.0016803C12.7777 6.7909e-07 12.7509 0 12.7307 0C10.5086 0 8.62739 1.46043 8.02273 3.46087C6.5413 4.03698 5.38068 5.24547 4.87007 6.75713C2.14236 7.01411 0 9.3152 0 12.1093V59.73C0 62.6962 2.4111 65.1064 5.37564 65.1064H37.5035C37.527 65.1106 37.5488 65.119 37.5698 65.119H37.6572C37.6622 65.119 37.6656 65.119 37.6689 65.119C37.6883 65.119 37.7101 65.1106 37.7328 65.1064H69.8951C72.8604 65.1064 75.2715 62.6962 75.2715 59.73V12.1084C75.2732 9.2858 73.0821 6.96624 70.3133 6.75293ZM6.5413 6.73193C6.84363 6.13651 7.29965 5.6301 7.8556 5.26394V6.73193V8.26879V53.3247C7.8556 55.4293 9.21694 57.2802 11.2426 57.9319C11.2602 57.9386 11.2787 57.9437 11.2955 57.9479L26.8278 61.984L9.23709 59.3974L8.78276 59.2857C7.21735 58.7625 6.1659 57.3029 6.1659 55.6451V8.35529C6.1659 8.32422 6.15666 8.29902 6.1533 8.26879C6.14826 8.22596 6.14659 8.18229 6.13567 8.14366C6.17934 7.64061 6.32211 7.16192 6.5413 6.73193ZM5.37732 63.5721C3.26015 63.5721 1.5377 61.8496 1.5377 59.7308V12.1084C1.5377 10.2591 2.84948 8.71221 4.59545 8.34857C4.59377 8.38888 4.58789 8.42752 4.58789 8.46783C4.58789 8.55517 4.60553 8.64251 4.63156 8.72313V55.6451C4.63156 57.9764 6.11971 60.0323 8.33346 60.7537C8.35109 60.7604 8.36957 60.7654 8.3872 60.7705L8.90537 60.8965C8.92804 60.9032 8.95324 60.9082 8.97759 60.9116L27.0722 63.5721H5.37732ZM37.1256 8.54509V63.0716L12.1252 56.5681L11.6877 56.4614C10.3121 56.0071 9.39162 54.7507 9.39162 53.3247V8.26879V6.73193V4.74578C9.39162 4.7231 9.38322 4.69959 9.38238 4.67691C9.37818 4.63408 9.37734 4.59041 9.36475 4.54926C9.38406 4.31999 9.43361 4.09744 9.49912 3.88413C9.58646 3.60447 9.70739 3.34077 9.86359 3.09723C10.4557 2.16924 11.5029 1.54525 12.698 1.53518L13.4026 1.59984L26.8849 5.50329L31.1344 6.73193L32.2765 7.06282L36.4394 8.26795L37.1247 8.46699L37.1256 8.54509ZM67.4588 53.3255V8.26963V6.73277V5.35296C67.9559 5.70904 68.3641 6.1827 68.6446 6.73277C68.8814 7.19971 69.0242 7.71871 69.0519 8.26963C69.0569 8.33597 69.0636 8.40232 69.0636 8.46951C69.0636 8.59548 69.0947 8.71641 69.151 8.82307V55.6459C69.151 57.2601 68.0407 58.7533 66.4468 59.2874L65.9933 59.3974L48.3849 61.9874L63.4738 58.0621L63.9399 57.9487C63.9576 57.9445 63.9761 57.9395 63.9937 57.9319C66.0336 57.276 67.4588 55.3806 67.4588 53.3255ZM51.0665 8.79115C54.4551 8.79115 57.2097 11.5483 57.2097 14.9361C57.2097 18.3247 54.4551 21.0818 51.0665 21.0818C47.6778 21.0818 44.9224 18.3247 44.9224 14.9361C44.9224 11.5483 47.6778 8.79115 51.0665 8.79115ZM38.1493 8.53333V8.44599L38.7598 8.26879L42.9312 7.06114L44.0666 6.73109L47.9969 5.59399V6.32379V6.73193V7.09809V7.90179C47.7475 8.01097 47.5065 8.13442 47.2722 8.26963C44.956 9.59233 43.3889 12.0849 43.3889 14.9369C43.3889 18.0795 45.2894 20.7828 47.9969 21.9703V26.3348C45.2869 27.5223 43.3889 30.2265 43.3889 33.3699C43.3889 36.5125 45.2894 39.2175 47.9969 40.4059V44.8913C47.9969 45.3154 48.3413 45.6589 48.7645 45.6589C49.1886 45.6589 49.5321 45.3154 49.5321 44.8913V40.8955C50.0293 40.9971 50.5424 41.05 51.069 41.05C55.3041 41.05 58.7499 37.6051 58.7499 33.3699C58.7499 29.1331 55.3041 25.689 51.069 25.689C50.5424 25.689 50.0293 25.7411 49.5321 25.8435V22.4625C50.0293 22.5649 50.5424 22.6195 51.069 22.6195C55.3041 22.6195 58.7499 19.1729 58.7499 14.9386C58.7499 12.0866 57.1845 9.59317 54.8658 8.27131C53.7455 7.63053 52.4513 7.25766 51.069 7.25766C50.5424 7.25766 50.0293 7.31224 49.5321 7.4147V6.87554V6.73445V6.10124V5.32441V5.15057L61.7967 1.59984L62.5013 1.53518C63.6964 1.54609 64.7394 2.16923 65.3323 3.09807C65.4877 3.34077 65.6137 3.60447 65.7002 3.88581C65.7791 4.14027 65.8236 4.40565 65.8379 4.68279C65.8421 4.73654 65.8472 4.79029 65.8472 4.84656C65.8472 4.96665 65.874 5.08002 65.9244 5.18416V6.73109V8.26795V53.3239C65.9244 54.7129 64.9502 56.0012 63.5503 56.4614L38.1527 63.0607V8.53333H38.1493ZM51.0665 27.225C54.4551 27.225 57.2097 29.9821 57.2097 33.3691C57.2097 36.7577 54.4551 39.5123 51.0665 39.5123C47.6778 39.5123 44.9224 36.7577 44.9224 33.3691C44.9224 29.983 47.6778 27.225 51.0665 27.225ZM73.7364 59.7308C73.7364 61.8496 72.0139 63.5721 69.8967 63.5721H48.1599L66.2536 60.9132C66.2771 60.9099 66.3023 60.9049 66.3259 60.8981L66.844 60.7722C66.8625 60.7671 66.8801 60.7621 66.8969 60.7554C69.1266 60.0256 70.6853 57.9244 70.6853 55.6476V8.35529C70.6853 8.35361 70.6853 8.35361 70.6853 8.35109C72.4254 8.71725 73.7364 10.2608 73.7364 12.1101V59.7308Z" fill="white"/>
<path d="M53.1038 19.1796C53.0199 18.6648 52.5462 18.302 52.0045 18.3894C51.4864 18.4767 51.1336 18.9688 51.2176 19.487C51.294 19.9531 51.6896 20.289 52.1599 20.289C52.2111 20.289 52.2615 20.2857 52.3153 20.2756C52.8343 20.1916 53.1887 19.6995 53.1038 19.1796Z" fill="white"/>
<path d="M50.1611 18.9319C48.8174 18.6287 47.7274 17.678 47.2369 16.3914C47.1378 16.1277 46.838 15.9934 46.5777 16.0942C46.314 16.1941 46.1796 16.4889 46.2804 16.7542C46.8917 18.3642 48.2573 19.5517 49.9369 19.9304C49.9764 19.9405 50.0142 19.9422 50.0503 19.9422C50.2846 19.9422 50.4954 19.7818 50.5508 19.5433C50.6104 19.2686 50.4366 18.9957 50.1611 18.9319Z" fill="white"/>
<path d="M53.1038 37.758C53.0182 37.2423 52.5361 36.8837 52.0045 36.9702C51.4864 37.0567 51.1336 37.548 51.2176 38.067C51.2932 38.5314 51.6896 38.869 52.1599 38.869C52.2111 38.869 52.2615 38.8632 52.3153 38.8548C52.8343 38.7708 53.1887 38.2795 53.1038 37.758Z" fill="white"/>
<path d="M46.2787 35.3359C46.8909 36.9458 48.2564 38.1333 49.9352 38.5121C49.9739 38.5205 50.0117 38.5247 50.0494 38.5247C50.2829 38.5247 50.4937 38.3634 50.5483 38.1249C50.6104 37.8495 50.4383 37.5732 50.1611 37.5127C48.8191 37.2104 47.7282 36.2597 47.2378 34.9731C47.1387 34.7086 46.838 34.5742 46.5785 34.6758C46.3131 34.7749 46.1796 35.0705 46.2787 35.3359Z" fill="white"/>
<path d="M14.2919 10.8168L33.0088 16.2361C33.0575 16.2504 33.1037 16.2546 33.1516 16.2546C33.375 16.2546 33.5799 16.1084 33.6437 15.8859C33.7227 15.6146 33.5648 15.3299 33.2944 15.251L14.5783 9.83251C14.3054 9.75693 14.0232 9.91061 13.9442 10.1827C13.8653 10.4548 14.0223 10.7395 14.2919 10.8168Z" fill="white"/>
<path d="M33.2944 20.1706L14.5783 14.753C14.3054 14.674 14.0232 14.8302 13.9442 15.1007C13.8653 15.3728 14.0223 15.6566 14.2919 15.7356L33.0088 21.1549C33.0575 21.1683 33.1037 21.1759 33.1516 21.1759C33.375 21.1759 33.5799 21.0297 33.6437 20.8055C33.7227 20.5326 33.5665 20.2479 33.2944 20.1706Z" fill="white"/>
<path d="M33.2944 24.7862L14.5783 19.3669C14.3054 19.2897 14.0232 19.4467 13.9442 19.7163C13.8653 19.9884 14.0223 20.2722 14.2919 20.3529L33.0088 25.7705C33.0575 25.7848 33.1037 25.7906 33.1516 25.7906C33.375 25.7906 33.5799 25.6445 33.6437 25.4194C33.7227 25.1507 33.5665 24.8652 33.2944 24.7862Z" fill="white"/>
<path d="M33.2944 29.1146L14.5783 23.6953C14.3054 23.618 14.0232 23.7742 13.9442 24.0455C13.8653 24.3167 14.0223 24.5998 14.2919 24.6812L33.0088 30.0989C33.0575 30.1123 33.1037 30.1182 33.1516 30.1182C33.375 30.1182 33.5799 29.972 33.6437 29.7487C33.7227 29.4791 33.5665 29.1935 33.2944 29.1146Z" fill="white"/>
<path d="M33.2944 33.731L14.5783 28.3126C14.3054 28.237 14.0232 28.3924 13.9442 28.6628C13.8653 28.9357 14.0223 29.2187 14.2919 29.2968L33.0088 34.7161C33.0575 34.7304 33.1037 34.7346 33.1516 34.7346C33.375 34.7346 33.5799 34.5902 33.6437 34.3659C33.7227 34.0964 33.5665 33.8108 33.2944 33.731Z" fill="white"/>
<path d="M33.2944 38.4088L14.5783 32.9903C14.3054 32.9122 14.0232 33.0676 13.9442 33.3405C13.8653 33.6093 14.0223 33.8948 14.2919 33.9737L33.0088 39.3931C33.0575 39.4057 33.1037 39.4124 33.1516 39.4124C33.375 39.4124 33.5799 39.2671 33.6437 39.0445C33.7227 38.7708 33.5665 38.4886 33.2944 38.4088Z" fill="white"/>
<path d="M33.2944 43.0244L14.5783 37.6051C14.3054 37.5278 14.0232 37.6849 13.9442 37.9561C13.8653 38.2266 14.0223 38.5121 14.2919 38.5902L33.0088 44.007C33.0575 44.0213 33.1037 44.028 33.1516 44.028C33.375 44.028 33.5799 43.8819 33.6437 43.6593C33.7227 43.388 33.5665 43.1042 33.2944 43.0244Z" fill="white"/>
<path d="M33.2944 47.3528L14.5783 41.9352C14.3054 41.8579 14.0232 42.0124 13.9442 42.2829C13.8653 42.5558 14.0223 42.8405 14.2919 42.9178L33.0088 48.3354C33.0575 48.3505 33.1037 48.3555 33.1516 48.3555C33.375 48.3555 33.5799 48.2111 33.6437 47.9877C33.7227 47.7156 33.5665 47.4317 33.2944 47.3528Z" fill="white"/>
<path d="M33.2944 51.9684L14.5783 46.5508C14.3054 46.4735 14.0232 46.6281 13.9442 46.9002C13.8653 47.1706 14.0223 47.4569 14.2919 47.5367L33.0088 52.9544C33.0575 52.9661 33.1037 52.9745 33.1516 52.9745C33.375 52.9745 33.5799 52.8284 33.6437 52.605C33.7227 52.3312 33.5665 52.0474 33.2944 51.9684Z" fill="white"/>
<path d="M103.206 30.8337C105.202 30.8337 106.745 30.3865 107.834 29.492C108.923 28.5975 109.467 27.4114 109.467 25.9336C109.467 24.4557 108.936 23.2761 107.873 22.3946C106.81 21.5131 105.228 21.0593 103.128 21.0334H97.5667V30.8337H103.206ZM102.428 18.7C108.78 18.7 111.982 21.1112 112.034 25.9336C112.034 30.004 109.687 32.3634 104.995 33.0115L113.006 46.2341H110.089L102.35 33.1671H97.5667V46.2341H95V18.7H102.428ZM131.479 35.7338C131.479 34.1004 130.87 32.7199 129.651 31.592C128.432 30.4642 126.955 29.9003 125.218 29.9003C123.532 29.9003 122.08 30.4642 120.862 31.592C119.643 32.7199 118.93 34.1004 118.723 35.7338H131.479ZM125.373 27.8003C127.862 27.8003 129.884 28.604 131.44 30.2114C132.995 31.8189 133.786 33.893 133.812 36.4338V37.8339H118.723C118.827 39.8562 119.494 41.4831 120.726 42.7146C121.957 43.9461 123.558 44.5748 125.529 44.6007C126.747 44.6007 127.907 44.3091 129.009 43.7257C130.111 43.1424 130.96 42.371 131.557 41.4118L133.268 42.8507C131.582 45.4174 128.99 46.7008 125.49 46.7008C122.742 46.6749 120.544 45.7804 118.898 44.0174C117.252 42.2544 116.415 39.9858 116.389 37.2116C116.389 34.5153 117.239 32.2791 118.937 30.5031C120.635 28.7271 122.78 27.8262 125.373 27.8003ZM140.462 32.1171C140.462 35.4616 141.597 38.2487 143.865 40.4784C146.134 42.7081 148.94 43.8489 152.285 43.9007C155.578 43.8748 158.229 42.734 160.238 40.4784C162.247 38.2228 163.252 35.4357 163.252 32.1171C163.252 28.5651 162.195 25.7132 160.082 23.5613C157.969 21.4094 155.215 20.3334 151.818 20.3334C148.37 20.3334 145.622 21.4288 143.574 23.6196C141.525 25.8104 140.488 28.6429 140.462 32.1171ZM151.857 18C156.005 18.0259 159.356 19.3482 161.91 21.9668C164.464 24.5854 165.767 27.9688 165.819 32.1171C165.819 34.6319 165.177 37.0237 163.894 39.2923C162.61 41.5608 160.957 43.0711 158.935 43.8229V43.9007H167.53V46.2341H152.285C149.666 46.2341 147.242 45.6054 145.012 44.348C142.783 43.0905 141.046 41.3858 139.801 39.2339C138.557 37.082 137.922 34.7097 137.896 32.1171C137.896 27.9947 139.198 24.6243 141.804 22.0057C144.41 19.3871 147.761 18.0519 151.857 18ZM178.108 46.7008C175.826 46.7008 174.115 46.0591 172.974 44.7757C171.834 43.4924 171.263 41.5284 171.263 38.8839V28.267H173.597V38.7672C173.597 40.7117 173.966 42.1701 174.705 43.1424C175.444 44.1146 176.578 44.6007 178.108 44.6007C180.001 44.6007 181.504 43.9526 182.619 42.6562C183.734 41.3599 184.304 39.5321 184.33 37.1728V28.267H186.664V41.3729C186.716 42.6951 186.78 44.3155 186.858 46.2341H184.525C184.499 44.7563 184.447 43.7063 184.369 43.084H184.252C183.734 44.1989 182.911 45.0804 181.783 45.7285C180.655 46.3767 179.43 46.7008 178.108 46.7008ZM194.403 37.2505C194.403 39.4024 195.077 41.1655 196.425 42.5396C197.773 43.9137 199.471 44.6007 201.52 44.6007C203.646 44.6007 205.363 43.9007 206.673 42.5007C207.982 41.1006 208.636 39.3506 208.636 37.2505C208.636 35.1764 207.988 33.4393 206.692 32.0393C205.396 30.6392 203.659 29.9263 201.481 29.9003C199.381 29.9003 197.682 30.6003 196.386 32.0004C195.09 33.4004 194.429 35.1505 194.403 37.2505ZM201.52 27.8003C204.268 27.8003 206.523 28.6947 208.286 30.4837C210.049 32.2726 210.944 34.5282 210.97 37.2505C210.97 40.0247 210.069 42.2868 208.267 44.0368C206.465 45.7869 204.216 46.6749 201.52 46.7008C198.694 46.6749 196.419 45.7674 194.694 43.9785C192.97 42.1896 192.095 39.9469 192.069 37.2505C192.069 34.4764 192.957 32.2143 194.733 30.4642C196.509 28.7142 198.771 27.8262 201.52 27.8003ZM217.503 23.0946H219.837V28.267H224.97V30.367H219.837V42.1118C219.837 42.8636 220.057 43.4664 220.498 43.9202C220.939 44.3739 221.548 44.6007 222.326 44.6007C223.181 44.6007 224.063 44.3933 224.97 43.9785L225.165 46.0786C223.998 46.4934 222.974 46.7008 222.092 46.7008C220.563 46.7008 219.415 46.273 218.651 45.4174C217.886 44.5618 217.503 43.46 217.503 42.1118V30.367H213.614V28.267H217.503V23.0946ZM243.21 35.7338C243.21 34.1004 242.6 32.7199 241.382 31.592C240.163 30.4642 238.685 29.9003 236.948 29.9003C235.263 29.9003 233.811 30.4642 232.593 31.592C231.374 32.7199 230.661 34.1004 230.454 35.7338H243.21ZM237.104 27.8003C239.593 27.8003 241.615 28.604 243.171 30.2114C244.726 31.8189 245.517 33.893 245.543 36.4338V37.8339H230.454C230.557 39.8562 231.225 41.4831 232.457 42.7146C233.688 43.9461 235.289 44.5748 237.259 44.6007C238.478 44.6007 239.638 44.3091 240.74 43.7257C241.842 43.1424 242.691 42.371 243.287 41.4118L244.999 42.8507C243.313 45.4174 240.721 46.7008 237.221 46.7008C234.472 46.6749 232.275 45.7804 230.629 44.0174C228.982 42.2544 228.146 39.9858 228.12 37.2116C228.12 34.5153 228.969 32.2791 230.668 30.5031C232.366 28.7271 234.511 27.8262 237.104 27.8003Z" fill="white"/>
</svg>
